<?xml version="1.0" encoding="iso-8859-1"?>
<!-- Generator: Adobe Illustrator 19.0.0, SVG Export Plug-In . SVG Version: 6.00 Build 0)  -->
<svg version="1.1" id="Layer_1" xmlns="http://www.w3.org/2000/svg" xmlns:xlink="http://www.w3.org/1999/xlink" x="0px" y="0px"
	 viewBox="0 0 426.24 426.24" style="enable-background:new 0 0 426.24 426.24;" xml:space="preserve">
<g>
	<polygon style="fill:#F7B239;" points="420.24,175.16 420.24,209.66 387.24,209.66 358.82,209.66 175.76,209.66 37.76,209.66 
		9.78,209.66 9.78,175.16 55.97,175.16 129.86,175.16 187.86,175.16 261.86,175.16 335.86,175.16 	"/>
	<polyline style="fill:#F7B239;" points="387.24,209.66 387.24,412.41 358.82,412.41 358.82,209.66 387.24,209.66 	"/>
	<polyline style="fill:#F7B239;" points="358.82,209.66 358.82,271.149 175.76,271.149 175.76,209.66 358.82,209.66 	"/>
	<polyline style="fill:#A17A36;" points="352.82,215.66 181.76,215.66 181.76,265.149 352.82,265.149 352.82,215.66 	"/>
	<path style="fill:#E6E6E6;" d="M335.86,152.49v22.67h-74v-6.9c0-8.71,7.06-15.77,15.77-15.77H335.86z"/>
	<path style="fill:#E6E6E6;" d="M261.86,168.26v6.9h-74v-22.67h58.22C254.8,152.49,261.86,159.55,261.86,168.26z"/>
	<rect x="37.76" y="344.83" style="fill:#F7B239;" width="138" height="67.58"/>
	<rect x="37.76" y="277.24" style="fill:#F7B239;" width="138" height="67.59"/>
	<polyline style="fill:#F7B239;" points="175.76,209.66 175.76,277.24 37.76,277.24 37.76,209.66 175.76,209.66 	"/>
	<path style="fill:#4CC18E;" d="M161.9,33.68l-68.52,68.51c-18.92-18.92-18.92-49.59,0-68.51C112.3,14.75,142.98,14.75,161.9,33.68z
		"/>
	<rect x="55.97" y="155.31" style="fill:#4CC18E;" width="73.89" height="19.85"/>
	<path style="fill:#4CC18E;" d="M21.26,69.9c8.43,0,15.26,6.83,15.26,15.26s-6.83,15.26-15.26,15.26C12.84,100.42,6,93.59,6,85.16
		S12.84,69.9,21.26,69.9z"/>
	<path style="fill:#FFFFFF;" d="M106.815,53.115c-1.535,0-3.07-0.585-4.241-1.756c-2.344-2.342-2.345-6.141-0.003-8.485
		c6.697-6.701,15.6-10.391,25.069-10.391c0.992,0,1.994,0.042,2.978,0.123c3.303,0.274,5.758,3.174,5.483,6.476
		c-0.274,3.303-3.183,5.753-6.476,5.483c-0.655-0.054-1.323-0.082-1.985-0.082c-6.263,0-12.151,2.441-16.581,6.874
		C109.887,52.529,108.351,53.115,106.815,53.115z"/>
	<rect x="169.76" y="248.65" style="fill:#333333;" width="12" height="28.59"/>
	<path style="fill:#F7B239;" d="M144.56,69.59c0,8.43-6.83,15.26-15.27,15.26c-5.05,0-9.53-2.46-12.31-6.26l21.32-21.32
		C142.1,60.04,144.56,64.53,144.56,69.59z"/>
	<path style="fill:#333333;" d="M132.259,258.949h-51c-8.547,0-15.5-6.954-15.5-15.5c0-8.547,6.953-15.5,15.5-15.5h4.5
		c3.313,0,6,2.686,6,6c0,3.313-2.687,6-6,6h-4.5c-1.93,0-3.5,1.57-3.5,3.5s1.57,3.5,3.5,3.5h51c1.93,0,3.5-1.57,3.5-3.5
		s-1.57-3.5-3.5-3.5h-4.5c-3.314,0-6-2.686-6-6s2.687-6,6-6h4.5c8.547,0,15.5,6.954,15.5,15.5
		C147.759,251.995,140.806,258.949,132.259,258.949"/>
	<path style="fill:#333333;" d="M132.259,394.118h-51c-8.547,0-15.5-6.953-15.5-15.5s6.953-15.5,15.5-15.5h4.5c3.313,0,6,2.686,6,6
		s-2.687,6-6,6h-4.5c-1.93,0-3.5,1.57-3.5,3.5s1.57,3.5,3.5,3.5h51c1.93,0,3.5-1.57,3.5-3.5s-1.57-3.5-3.5-3.5h-4.5
		c-3.313,0-6-2.686-6-6s2.687-6,6-6h4.5c8.547,0,15.5,6.953,15.5,15.5S140.806,394.118,132.259,394.118z"/>
	<path style="fill:#333333;" d="M132.259,326.533h-51c-8.547,0-15.5-6.953-15.5-15.5s6.953-15.5,15.5-15.5h4.5c3.313,0,6,2.686,6,6
		s-2.687,6-6,6h-4.5c-1.93,0-3.5,1.57-3.5,3.5s1.57,3.5,3.5,3.5h51c1.93,0,3.5-1.57,3.5-3.5s-1.57-3.5-3.5-3.5h-4.5
		c-3.313,0-6-2.686-6-6s2.687-6,6-6h4.5c8.547,0,15.5,6.953,15.5,15.5S140.806,326.533,132.259,326.533z"/>
	<path style="fill:#333333;" d="M420.24,169.16h-78.38v-16.67c0-3.314-2.687-6-6-6h-58.23c-6.202,0-11.802,2.611-15.771,6.787
		c-3.971-4.176-9.573-6.787-15.779-6.787h-58.22c-3.313,0-6,2.686-6,6v16.67h-46v-13.85c0-3.314-2.687-6-6-6H93.894L39.92,95.335
		c1.656-3.024,2.6-6.491,2.6-10.175c0-3.684-0.944-7.151-2.6-10.175l43.142-43.142l2.074,2.074
		c-17.121,21.358-15.793,52.722,4.002,72.516c1.171,1.172,2.706,1.757,4.242,1.757c1.535,0,3.071-0.586,4.242-1.757l19.466-19.463
		c3.539,2.484,7.797,3.88,12.202,3.88c11.729,0,21.27-9.537,21.27-21.26c0-4.414-1.395-8.674-3.876-12.212l19.458-19.455
		c2.343-2.343,2.344-6.141,0.002-8.484c-10.284-10.29-23.958-15.956-38.504-15.956c-12.525,0-24.398,4.211-34.021,11.948
		L77.776,9.588c-2.342-2.343-6.142-2.343-8.485,0s-2.343,6.142,0.001,8.485l5.285,5.286L31.435,66.5
		c-3.024-1.656-6.491-2.6-10.175-2.6C9.537,63.9,0,73.437,0,85.16s9.537,21.26,21.26,21.26c3.684,0,7.151-0.944,10.175-2.6
		l45.49,45.49H55.97c-3.314,0-6,2.686-6,6v13.85H9.78c-3.313,0-6,2.686-6,6v34.5c0,3.313,2.687,6,6,6h21.98v61.58v67.59v67.58
		c0,3.314,2.687,6,6,6h138c3.314,0,6-2.686,6-6v-67.58v-67.59l-0.005-0.091H352.82V412.41c0,3.314,2.687,6,6,6h28.42
		c3.313,0,6-2.686,6-6V215.66h27c3.313,0,6-2.686,6-6v-34.5C426.241,171.847,423.554,169.16,420.24,169.16 M138.56,69.59
		c0,5.106-4.159,9.26-9.27,9.26c-1.2,0-2.358-0.225-3.429-0.652l12.049-12.047C138.335,67.224,138.56,68.385,138.56,69.59
		 M153.119,33.974l-59.44,59.432c-12.48-16.615-11.166-40.374,3.945-55.485c8.017-8.021,18.677-12.439,30.016-12.439
		C136.954,25.483,145.81,28.463,153.119,33.974 M21.26,94.42c-5.105,0-9.26-4.154-9.26-9.26s4.154-9.26,9.26-9.26
		c5.105,0,9.26,4.154,9.26,9.26S26.365,94.42,21.26,94.42 M277.63,158.49h52.23v10.67h-62v-0.9
		C267.86,162.873,272.243,158.49,277.63,158.49 M193.861,158.49h52.22c5.393,0,9.78,4.383,9.78,9.77v0.9h-62V158.49 M61.97,161.31
		h61.891v7.85H61.97V161.31 M169.76,338.83h-126v-55.59h126V338.83 M169.764,271.24H43.76v-55.58h126v55.489L169.764,271.24
		 M169.76,406.41h-126v-55.58h126V406.41 M181.76,265.149V215.66h171.06v49.489H181.76 M364.82,406.41V215.66h16.42v190.75H364.82
		 M414.24,203.66H15.78v-22.5h398.46V203.66"/>
	<path style="fill:#A17A36;" d="M169.76,215.66h-126v17.18h26.208c2.829-3.009,6.844-4.891,11.291-4.891h4.5
		c2.935,0,5.377,2.107,5.898,4.891h30.204c0.52-2.784,2.963-4.891,5.898-4.891h4.5c4.447,0,8.462,1.882,11.291,4.891h26.21
		L169.76,215.66"/>
	<path style="fill:#333333;" d="M85.759,227.949h-4.5c-4.447,0-8.462,1.882-11.291,4.891h21.688
		C91.136,230.056,88.693,227.949,85.759,227.949 M132.259,227.949h-4.5c-2.935,0-5.378,2.107-5.898,4.891h21.689
		C140.721,229.831,136.706,227.949,132.259,227.949"/>
	<polyline style="fill:#333333;" points="175.76,211.51 37.19,211.51 37.19,232.84 43.76,232.84 43.76,215.66 169.76,215.66 
		169.76,232.84 175.76,232.84 175.76,211.51 	"/>
	<polyline style="fill:#A17A36;" points="381.24,215.66 364.82,215.66 364.82,232.84 381.24,232.84 381.24,215.66 	"/>
	<polyline style="fill:#333333;" points="386.52,211.51 358.82,211.51 358.82,232.84 364.82,232.84 364.82,215.66 381.24,215.66 
		381.24,232.84 386.52,232.84 386.52,211.51 	"/>
</g>
<g>
</g>
<g>
</g>
<g>
</g>
<g>
</g>
<g>
</g>
<g>
</g>
<g>
</g>
<g>
</g>
<g>
</g>
<g>
</g>
<g>
</g>
<g>
</g>
<g>
</g>
<g>
</g>
<g>
</g>
</svg>
