<?xml version="1.0" encoding="iso-8859-1"?>
<!-- Generator: Adobe Illustrator 19.0.0, SVG Export Plug-In . SVG Version: 6.00 Build 0)  -->
<svg version="1.1" id="Layer_1" xmlns="http://www.w3.org/2000/svg" xmlns:xlink="http://www.w3.org/1999/xlink" x="0px" y="0px"
	 viewBox="0 0 511.992 511.992" style="enable-background:new 0 0 511.992 511.992;" xml:space="preserve">
<path style="fill:#F6BB42;" d="M501.319,511.992H266.667c-3.227,0-6.281-1.469-8.305-3.969s-2.805-5.812-2.125-8.953l66.945-309.322
	c1.062-4.906,5.406-8.414,10.422-8.414h106.67c5.094,0,9.469,3.602,10.453,8.602l61.062,309.322
	c0.608,3.141-0.203,6.375-2.234,8.844C507.538,510.555,504.507,511.992,501.319,511.992z"/>
<path style="fill:#AAB2BC;" d="M243.229,390.338c0.102-0.156,0.219-0.281,0.312-0.438c0.102-0.156,0.188-0.312,0.281-0.453
	c0.086-0.141,0.18-0.297,0.266-0.453c0.078-0.156,0.148-0.312,0.227-0.484c0.07-0.141,0.148-0.297,0.211-0.453
	c0.07-0.172,0.125-0.344,0.188-0.5c0.055-0.156,0.109-0.312,0.164-0.469c0.047-0.188,0.086-0.359,0.133-0.531
	c0.039-0.156,0.078-0.312,0.109-0.469c0.039-0.188,0.055-0.359,0.086-0.531c0.023-0.156,0.055-0.328,0.07-0.5
	c0.016-0.156,0.016-0.344,0.031-0.516c0.008-0.172,0.016-0.328,0.023-0.5c0-0.172-0.016-0.344-0.023-0.516s-0.008-0.344-0.023-0.5
	c-0.016-0.172-0.047-0.344-0.07-0.516s-0.039-0.328-0.07-0.5s-0.078-0.328-0.117-0.516c-0.039-0.156-0.078-0.312-0.125-0.5
	c-0.047-0.156-0.109-0.312-0.164-0.469c-0.055-0.172-0.109-0.344-0.172-0.5s-0.148-0.312-0.219-0.469s-0.141-0.312-0.219-0.469
	s-0.18-0.312-0.273-0.469c-0.086-0.156-0.164-0.312-0.258-0.453c-0.102-0.141-0.219-0.297-0.328-0.453
	c-0.102-0.125-0.195-0.281-0.305-0.406c-0.109-0.156-0.242-0.281-0.367-0.422c-0.109-0.125-0.211-0.25-0.32-0.359L106.052,237.856
	c-4.125-4.203-10.883-4.258-15.085-0.133c-4.203,4.133-4.257,10.883-0.133,15.086l128.81,131.123l-24.522,24.531
	c-4.164,4.156-4.164,10.906,0,15.078c2.086,2.078,4.812,3.109,7.546,3.109c2.727,0,5.453-1.031,7.539-3.109l32-32
	c0.117-0.109,0.219-0.25,0.336-0.359c0.117-0.156,0.25-0.281,0.367-0.406C243.018,390.619,243.12,390.478,243.229,390.338z"/>
<path style="fill:#434A54;" d="M386.93,32c-5.891,0-10.656-4.773-10.656-10.664V10.664C376.274,4.773,381.04,0,386.93,0
	s10.672,4.773,10.672,10.664v10.672C397.601,27.227,392.82,32,386.93,32z"/>
<g>
	<path style="fill:#CCD1D9;" d="M351.166,44.039c-2.812-2.391-6.656-3.156-10.172-2.016L19.647,145.889
		c-4.406,1.422-7.39,5.523-7.39,10.148v30.352c0,3.422,1.641,6.64,4.414,8.64c1.844,1.336,4.039,2.031,6.257,2.031
		c1.117,0,2.242-0.18,3.328-0.539L343.119,92.304c3.828-1.258,6.609-4.562,7.219-8.554l4.484-30
		C355.369,50.094,353.978,46.422,351.166,44.039z"/>
	<path style="fill:#CCD1D9;" d="M211.768,410.432L65.373,170.725c-1.844-3.023-5.07-4.938-8.601-5.102l-40.507-1.883
		c-3.93-0.18-7.633,1.805-9.648,5.172c-2.023,3.375-2.023,7.578-0.008,10.953l144.232,241.598c1.922,3.219,5.406,5.188,9.156,5.188
		h42.671c3.852,0,7.414-2.062,9.296-5.438C213.854,417.853,213.776,413.728,211.768,410.432z"/>
</g>
<path style="fill:#434A54;" d="M202.667,405.338h-42.671c-5.891,0-10.664,4.766-10.664,10.656v42.654
	c0,5.906,4.773,10.688,10.664,10.688h42.671c5.891,0,10.664-4.781,10.664-10.688v-42.654
	C213.331,410.103,208.558,405.338,202.667,405.338z"/>
<circle style="fill:#656D78;" cx="42.67" cy="170.676" r="32"/>
<g>
	<path style="fill:#434A54;" d="M42.67,128.014c-23.523,0-42.664,19.14-42.664,42.664c0,23.523,19.14,42.663,42.664,42.663
		c23.523,0,42.664-19.14,42.664-42.663C85.334,147.154,66.193,128.014,42.67,128.014z M42.67,192.013
		c-11.766,0-21.336-9.57-21.336-21.335s9.57-21.336,21.336-21.336s21.335,9.57,21.335,21.336S54.436,192.013,42.67,192.013z"/>
	<circle style="fill:#434A54;" cx="42.67" cy="170.676" r="10.664"/>
</g>
<g>
	<path style="fill:#FFCE54;" d="M354.932,234.668c-5.891,0-10.656-4.773-10.656-10.664v-31.999c0-5.89,4.766-10.671,10.656-10.671
		s10.671,4.781,10.671,10.671v31.999C365.602,229.895,360.821,234.668,354.932,234.668z"/>
	<path style="fill:#FFCE54;" d="M418.93,234.668c-5.891,0-10.656-4.773-10.656-10.664v-31.999c0-5.89,4.766-10.671,10.656-10.671
		s10.672,4.781,10.672,10.671v31.999C429.601,229.895,424.82,234.668,418.93,234.668z"/>
	<path style="fill:#FFCE54;" d="M386.93,298.668c-5.891,0-10.656-4.781-10.656-10.672v-95.991c0-5.89,4.766-10.671,10.656-10.671
		s10.672,4.781,10.672,10.671v95.991C397.601,293.887,392.82,298.668,386.93,298.668z"/>
</g>
<polygon style="fill:#434A54;" points="461.211,192.005 312.651,192.005 344.275,63.999 429.601,63.999 "/>
<g>
	<rect x="344.276" y="21.336" style="fill:#656D78;" width="85.33" height="42.663"/>
	<path style="fill:#656D78;" d="M330.65,447.992H32.006c-5.891,0-10.672,4.781-10.672,10.656v42.688
		c0,5.875,4.781,10.656,10.672,10.656H330.65c5.891,0,10.672-4.781,10.672-10.656v-42.688
		C341.322,452.773,336.541,447.992,330.65,447.992z"/>
</g>
<g>
	<path style="fill:#434A54;" d="M291.323,490.648c-5.891,0-10.672,4.781-10.672,10.688v10.656h21.344v-10.656
		C301.995,495.43,297.214,490.648,291.323,490.648z"/>
	<path style="fill:#434A54;" d="M248.659,490.648c-5.89,0-10.664,4.781-10.664,10.688v10.656h21.336v-10.656
		C259.331,495.43,254.557,490.648,248.659,490.648z"/>
	<path style="fill:#434A54;" d="M205.996,490.648c-5.891,0-10.664,4.781-10.664,10.688v10.656h21.335v-10.656
		C216.667,495.43,211.886,490.648,205.996,490.648z"/>
	<path style="fill:#434A54;" d="M163.332,490.648c-5.891,0-10.664,4.781-10.664,10.688v10.656h21.328v-10.656
		C173.996,495.43,169.223,490.648,163.332,490.648z"/>
	<path style="fill:#434A54;" d="M120.669,490.648c-5.891,0-10.672,4.781-10.672,10.688v10.656h21.336v-10.656
		C131.333,495.43,126.559,490.648,120.669,490.648z"/>
	<path style="fill:#434A54;" d="M77.998,490.648c-5.891,0-10.664,4.781-10.664,10.688v10.656H88.67v-10.656
		C88.67,495.43,83.889,490.648,77.998,490.648z"/>
</g>
<g>
</g>
<g>
</g>
<g>
</g>
<g>
</g>
<g>
</g>
<g>
</g>
<g>
</g>
<g>
</g>
<g>
</g>
<g>
</g>
<g>
</g>
<g>
</g>
<g>
</g>
<g>
</g>
<g>
</g>
</svg>
