<?xml version="1.0" encoding="iso-8859-1"?>
<!-- Generator: Adobe Illustrator 19.0.0, SVG Export Plug-In . SVG Version: 6.00 Build 0)  -->
<svg version="1.1" id="Layer_1" xmlns="http://www.w3.org/2000/svg" xmlns:xlink="http://www.w3.org/1999/xlink" x="0px" y="0px"
	 viewBox="0 0 512 512" style="enable-background:new 0 0 512 512;" xml:space="preserve">
<!-- <circle style="fill:#FFEDB5;" cx="256" cy="256" r="256"/>
<path style="fill:#FEE187;" d="M162.335,173.253L78.438,357.464l153.391,153.391c7.958,0.745,16.017,1.143,24.171,1.143
	c141.384,0,256-114.616,256-256c0-8.152-0.398-16.212-1.143-24.171l-77.295-77.291L162.335,173.253z"/> -->
<!-- <rect x="78.438" y="179.907" style="fill:#D48B07;" width="126.828" height="177.562"/>
<rect x="141.653" y="179.907" style="fill:#A36400;" width="63.619" height="177.562"/>
<rect x="408.204" y="179.907" style="fill:#D48B07;" width="25.366" height="177.562"/>
<rect x="78.438" y="154.531" style="fill:#366695;" width="355.125" height="25.366"/>
<rect x="254.276" y="154.531" style="fill:#255175;" width="179.286" height="25.366"/> -->
<!-- -->
<!-- <g>
	<rect x="141.653" y="194.888" style="fill:#DDA417;" width="50.936" height="61.893"/>
	<rect x="141.653" y="273.67" style="fill:#DDA417;" width="50.936" height="61.893"/>
</g> -->
<g>
</g>
<g>
</g>
<g>
</g>
<g>
</g>
<g>
</g>
<g>
</g>
<g>
</g>
<g>
</g>
<g>
</g>
<g>
</g>
<g>
</g>
<g>
</g>
<g>
</g>
<g>
</g>
<g>
</g>
</svg>
