<?xml version="1.0" encoding="iso-8859-1"?>
<!-- Generator: Adobe Illustrator 19.0.0, SVG Export Plug-In . SVG Version: 6.00 Build 0)  -->
<svg version="1.1" id="Layer_1" xmlns="http://www.w3.org/2000/svg" xmlns:xlink="http://www.w3.org/1999/xlink" x="0px" y="0px"
	 viewBox="0 0 512 512" style="enable-background:new 0 0 512 512;" xml:space="preserve">
<path style="fill:#B78A6D;" d="M411.2,286v-56H492v112l-80.8-3.2V286z M456.8,258c0-2-1.6-4-4-4c-2.4,0-4,2-4,4s1.6,4,4,4
	S456.8,260,456.8,258z M456.8,314c0-2-1.6-4-4-4c-2.4,0-4,2-4,4s1.6,4,4,4S456.8,316,456.8,314z"/>
<rect x="411.2" y="178" style="fill:#9F633C;" width="80.8" height="52"/>
<g>
	<circle style="fill:#B78A6D;" cx="452.8" cy="258" r="4"/>
	<circle style="fill:#B78A6D;" cx="452.8" cy="314" r="4"/>
</g>
<g>
	<path style="fill:#895129;" d="M408,342v4c0,4.4-3.6,8-8,8s-8-3.6-8-8V174h16v56v56V342z"/>
	<path style="fill:#895129;" d="M180,346c0,4.4-3.6,8-8,8s-8-3.6-8-8v-4v-3.2V230v-52v-4h16V346z"/>
</g>
<path style="fill:#B78A6D;" d="M20,286v-56h144v108.8H20V286z M96.8,258c0-2-1.6-4-4-4s-4,2-4,4s1.6,4,4,4S96.8,260,96.8,258z
	 M96.8,314c0-2-1.6-4-4-4s-4,2-4,4s1.6,4,4,4S96.8,316,96.8,314z"/>
<rect x="20" y="178" style="fill:#9F633C;" width="144" height="52"/>
<g>
	<circle style="fill:#B78A6D;" cx="92.8" cy="258" r="4"/>
	<circle style="fill:#B78A6D;" cx="92.8" cy="314" r="4"/>
</g>
<path style="fill:#9F633C;" d="M508,346c0,4.4-3.6,8-8,8s-8-3.6-8-8v-4V230v-52v-4h-84h-16H180h-16H20v4v52v56v52.8v3.2v4
	c0,4.4-3.6,8-8,8s-8-3.6-8-8V166c0-4.4,4.4-8,8.8-8h488c4.4,0,7.2,3.6,7.2,8V346z"/>
<path d="M400,358c-6.8,0-12-5.2-12-12V174c0-2.4,1.6-4,4-4s4,1.6,4,4v172c0,2.4,1.6,4,4,4s4-1.6,4-4V174c0-2.4,1.6-4,4-4s4,1.6,4,4
	v172C412,352.8,406.8,358,400,358z"/>
<path d="M172,358c-6.8,0-12-5.2-12-12V174c0-2.4,1.6-4,4-4s4,1.6,4,4v172c0,2.4,1.6,4,4,4s4-1.6,4-4V174c0-2.4,1.6-4,4-4s4,1.6,4,4
	v172C184,352.8,178.8,358,172,358z"/>
<path d="M500,358c-6.8,0-12-5.2-12-12V178H24v168c0,6.8-5.2,12-12,12s-12-5.2-12-12V166c0-6.4,6-12,12.8-12h488
	c6.4,0,11.2,5.2,11.2,12v180C512,352.8,506.8,358,500,358z M20,170h472c2.4,0,4,1.6,4,4v172c0,2.4,1.6,4,4,4s4-1.6,4-4V166
	c0-2-1.2-4-3.2-4h-488c-2.4,0-4.8,2-4.8,4v180c0,2.4,1.6,4,4,4s4-1.6,4-4V174C16,171.6,17.6,170,20,170z"/>
<path d="M164,346H20c-2.4,0-4-1.6-4-4s1.6-4,4-4h144c2.4,0,4,1.6,4,4S166.4,346,164,346z"/>
<path d="M492,346h-84c-2.4,0-4-1.6-4-4s1.6-4,4-4h84c2.4,0,4,1.6,4,4S494.4,346,492,346z"/>
<path d="M164,234H20c-2.4,0-4-1.6-4-4s1.6-4,4-4h144c2.4,0,4,1.6,4,4S166.4,234,164,234z"/>
<path d="M492,234h-84c-2.4,0-4-1.6-4-4s1.6-4,4-4h84c2.4,0,4,1.6,4,4S494.4,234,492,234z"/>
<path d="M148,290H20c-2.4,0-4-1.6-4-4s1.6-4,4-4h128c2.4,0,4,1.6,4,4S150.4,290,148,290z"/>
<path d="M476,290h-68c-2.4,0-4-1.6-4-4s1.6-4,4-4h68c2.4,0,4,1.6,4,4S478.4,290,476,290z"/>
<circle cx="92.8" cy="258" r="8"/>
<circle cx="92.8" cy="314" r="8"/>
<circle cx="452.8" cy="258" r="8"/>
<circle cx="452.8" cy="314" r="8"/>
<g>
</g>
<g>
</g>
<g>
</g>
<g>
</g>
<g>
</g>
<g>
</g>
<g>
</g>
<g>
</g>
<g>
</g>
<g>
</g>
<g>
</g>
<g>
</g>
<g>
</g>
<g>
</g>
<g>
</g>
</svg>
