<?xml version="1.0" encoding="iso-8859-1"?>
<!-- Generator: Adobe Illustrator 19.0.0, SVG Export Plug-In . SVG Version: 6.00 Build 0)  -->
<svg xmlns="http://www.w3.org/2000/svg" xmlns:xlink="http://www.w3.org/1999/xlink" version="1.1" id="Layer_1" x="0px" y="0px" viewBox="0 0 442.727 442.727" style="enable-background:new 0 0 442.727 442.727;" xml:space="preserve" width="512" height="512">
<g id="_x32_9._Lamp_2_">
	<g>
		<g id="XMLID_77_">
			<g>
				<g>
					<path style="fill:#FF7124;" d="M394.592,118.217l9.56,20.49l-55.04,25.66l-71.75,33.47l-55.04,25.66l-9.56-20.5       c-16.99-36.43-10.19-77.85,14-106.78l-12.01-25.76c-2.71-5.81-3.99-11.92-3.99-17.94c0-16,9.08-31.33,24.54-38.54       c21.28-9.92,46.56-0.71,56.48,20.56l12.01,25.76C341.512,60.357,377.602,81.777,394.592,118.217z"/>
				</g>
				<g>
					<path style="fill:#8ECAC1;" d="M349.112,164.367c9.24,19.82,0.67,43.37-19.14,52.61c-19.82,9.24-43.37,0.67-52.61-19.14       L349.112,164.367z"/>
				</g>
				<g>
					<path style="fill:#E6B263;" d="M282.762,427.187v5.54H99.282v-5.54c0-20.34,16.49-36.83,36.83-36.83h34.4h41.58h33.85       C266.282,390.357,282.762,406.847,282.762,427.187z"/>
				</g>
				<g>
					<path style="fill:#F2D59F;" d="M85.072,263.327l127.02,127.03h-41.58v-0.19l-111.38-111.38l0.01-0.36       c7.24,1.05,14.86-1.21,20.44-6.78c2.45-2.45,4.26-5.3,5.42-8.35L85.072,263.327z"/>
				</g>
				<g>
					<path style="fill:#E6B263;" d="M131.212,94.837c-2.77-6.67-2.52-14.51,1.37-21.25c6.64-11.5,21.34-15.44,32.83-8.8       c11.5,6.64,15.43,21.33,8.8,32.83c-3.87,6.71-10.51,10.85-17.63,11.8c-5.08,0.69-10.42-0.24-15.2-3       C136.622,103.677,133.162,99.547,131.212,94.837z"/>
				</g>
				<g>
					<path style="fill:#F2D59F;" d="M156.582,109.417l-75.22,130.23c-0.55-0.69-1.14-1.35-1.78-1.99       c-6.75-6.75-16.5-8.65-24.94-5.69l-1.12-2.57l77.69-134.56c1.95,4.71,5.41,8.84,10.17,11.58       C146.162,109.177,151.502,110.107,156.582,109.417z"/>
				</g>
				<g>
					<path style="fill:#E6B263;" d="M81.362,239.647c5.44,6.79,6.65,15.84,3.64,23.65c-1.16,3.05-2.97,5.9-5.42,8.35       c-5.58,5.57-13.2,7.83-20.44,6.78c-4.96-0.71-9.73-2.97-13.55-6.78c-9.38-9.39-9.38-24.61,0-33.99       c2.64-2.64,5.74-4.54,9.05-5.69c8.44-2.96,18.19-1.06,24.94,5.69C80.222,238.297,80.812,238.957,81.362,239.647z"/>
				</g>
			</g>
			<g>
				<g>
					<path style="fill:#5E2A41;" d="M282.763,442.727H99.283c-5.523,0-10-4.477-10-10v-5.54c0-25.822,21.008-46.83,46.83-46.83       h109.83c25.817,0,46.82,21.008,46.82,46.83v5.54C292.763,438.25,288.285,442.727,282.763,442.727z M109.653,422.727h162.739       c-2.129-12.679-13.179-22.37-26.45-22.37h-109.83C122.837,400.357,111.783,410.047,109.653,422.727z"/>
				</g>
				<g>
					<path style="fill:#5E2A41;" d="M177.432,94.627c-5.521,0-9.998-4.474-10-9.996c-0.003-5.522,4.473-10.002,9.996-10.004       l43.67-0.02c0.001,0,0.003,0,0.004,0c5.521,0,9.998,4.474,10,9.996c0.002,5.522-4.473,10.002-9.996,10.004l-43.67,0.02       C177.436,94.627,177.434,94.627,177.432,94.627z"/>
				</g>
				<g>
					<path style="fill:#5E2A41;" d="M62.538,288.671c-1.608,0-3.223-0.115-4.831-0.348c-7.293-1.044-13.93-4.363-19.176-9.596       c-13.274-13.288-13.272-34.878-0.009-48.142c3.661-3.66,7.974-6.372,12.82-8.058c12.261-4.295,26.12-1.133,35.312,8.058       c0.897,0.897,1.748,1.85,2.529,2.83c7.513,9.376,9.493,22.212,5.15,33.479c-1.682,4.423-4.271,8.415-7.68,11.825       C80.242,285.117,71.491,288.671,62.538,288.671z M62.632,240.6c-1.561,0-3.141,0.263-4.68,0.803       c-0.009,0.003-0.019,0.006-0.028,0.01c-1.978,0.687-3.748,1.802-5.26,3.315c-5.47,5.469-5.468,14.374,0.003,19.852       c2.154,2.148,4.887,3.518,7.892,3.948c4.442,0.641,8.793-0.8,11.958-3.958c1.392-1.392,2.45-3.018,3.137-4.826       c1.808-4.692,0.999-9.98-2.097-13.843c-0.335-0.421-0.673-0.798-1.047-1.172C69.816,242.033,66.274,240.6,62.632,240.6z"/>
				</g>
				<g>
					<path style="fill:#5E2A41;" d="M170.513,400.167c-2.559,0-5.119-0.976-7.071-2.929l-111.38-111.38       c-3.905-3.905-3.905-10.237,0-14.143c3.905-3.904,10.237-3.905,14.143,0l111.38,111.38c3.905,3.905,3.905,10.237,0,14.143       C175.631,399.19,173.072,400.167,170.513,400.167z"/>
				</g>
				<g>
					<path style="fill:#5E2A41;" d="M212.093,400.357c-2.56,0-5.119-0.976-7.071-2.929l-127.02-127.03       c-3.905-3.905-3.905-10.237,0.001-14.142c3.906-3.904,10.238-3.905,14.142,0l127.02,127.03c3.905,3.905,3.905,10.237,0,14.142       C217.211,399.38,214.652,400.357,212.093,400.357z"/>
				</g>
				<g>
					<path style="fill:#5E2A41;" d="M81.343,249.657c-1.47,0-2.961-0.325-4.37-1.013c-4.964-2.421-7.03-8.398-4.608-13.362       c0.103-0.21,0.222-0.436,0.338-0.637l75.22-130.23c2.762-4.782,8.878-6.42,13.661-3.658c4.783,2.762,6.42,8.878,3.658,13.661       L90.061,244.58C88.24,247.798,84.855,249.657,81.343,249.657z"/>
				</g>
				<g>
					<path style="fill:#5E2A41;" d="M53.513,239.398c-1.697,0-3.416-0.432-4.991-1.341c-4.783-2.761-6.422-8.877-3.66-13.66       l77.73-134.633c2.713-4.811,8.812-6.512,13.623-3.797c4.811,2.713,6.511,8.812,3.797,13.622l-0.09,0.16       c-0.016,0.029-0.033,0.059-0.05,0.087l-77.69,134.56C60.33,237.605,56.969,239.398,53.513,239.398z"/>
				</g>
				<g>
					<path style="fill:#5E2A41;" d="M153.291,119.642c-5.908,0-11.682-1.547-16.909-4.565c-6.535-3.762-11.521-9.44-14.409-16.414       c-4.096-9.871-3.386-20.832,1.948-30.074c4.548-7.876,11.888-13.509,20.669-15.863c8.783-2.354,17.956-1.145,25.826,3.403       c16.24,9.376,21.831,30.229,12.459,46.482c-5.314,9.216-14.416,15.309-24.97,16.718       C156.363,119.538,154.822,119.642,153.291,119.642z M153.42,71.559c-1.218,0-2.444,0.16-3.652,0.484       c-3.621,0.971-6.649,3.295-8.525,6.544c-2.199,3.809-2.489,8.335-0.795,12.414c0.001,0.003,0.003,0.006,0.004,0.01       c1.185,2.861,3.232,5.192,5.92,6.739c2.721,1.571,5.785,2.178,8.865,1.757c4.375-0.583,8.125-3.093,10.313-6.887       c3.866-6.705,1.562-15.306-5.137-19.174C158.25,72.197,155.85,71.559,153.42,71.559z"/>
				</g>
				<g>
					<path style="fill:#5E2A41;" d="M313.316,230.682c-18.688,0.001-36.612-10.601-45.016-28.619       c-2.335-5.005-0.17-10.955,4.835-13.289c5.004-2.333,10.955-0.17,13.29,4.835c6.895,14.781,24.535,21.197,39.323,14.304       c14.779-6.893,21.195-24.534,14.301-39.321c-2.333-5.006-0.168-10.956,4.838-13.289c5.007-2.333,10.955-0.167,13.289,4.838       c11.553,24.781,0.797,54.343-23.976,65.898C327.441,229.19,320.323,230.681,313.316,230.682z"/>
				</g>
				<g>
					<path style="fill:#5E2A41;" d="M222.329,233.499c-3.766,0-7.373-2.138-9.069-5.776l-9.56-20.5       c-17.097-36.658-12.517-80.056,11.402-112.354l-9.413-20.188c-3.268-7.008-4.926-14.466-4.926-22.165       c0-20.33,11.899-39.015,30.313-47.603c26.238-12.231,57.534-0.837,69.769,25.396l9.412,20.187       c40.11,2.435,76.302,26.825,93.399,63.494l9.559,20.488c1.121,2.404,1.242,5.155,0.335,7.648       c-0.907,2.493-2.768,4.523-5.171,5.644l-55.038,25.659l-71.75,33.47l-55.041,25.661       C225.181,233.197,223.744,233.499,222.329,233.499z M253.21,19.999c-4.592,0-9.253,0.977-13.682,3.042       c-11.399,5.316-18.765,16.887-18.765,29.477c0,4.757,1.027,9.371,3.052,13.713l12.011,25.761       c1.639,3.516,1.097,7.664-1.392,10.64c-22.402,26.792-27.351,64.529-12.608,96.139l5.334,11.438l117.725-54.904       c0.001,0,0.001,0,0.002-0.001l45.974-21.433l-5.331-11.425c-14.745-31.624-46.834-52.092-81.754-52.148       c-3.88-0.006-7.407-2.257-9.047-5.774l-12.01-25.76C277.21,26.951,265.458,19.999,253.21,19.999z"/>
				</g>
				<g>
					<path style="fill:#5E2A41;" d="M356.561,132.287c-3.09,0-6.137-1.427-8.094-4.117c-10.404-14.298-27.132-22.849-44.749-22.874       c-5.523-0.008-9.994-4.492-9.986-10.014c0.008-5.518,4.484-9.986,10-9.986c0.005,0,0.01,0,0.015,0       c23.98,0.035,46.744,11.663,60.892,31.106c3.25,4.466,2.264,10.72-2.202,13.97C360.66,131.665,358.601,132.287,356.561,132.287       z"/>
				</g>
			</g>
		</g>
	</g>
</g>















</svg>
